<?xml version="1.0" standalone="no"?>
<!DOCTYPE svg PUBLIC "-//W3C//DTD SVG 20010904//EN"
 "http://www.w3.org/TR/2001/REC-SVG-20010904/DTD/svg10.dtd">
<svg version="1.0" xmlns="http://www.w3.org/2000/svg"
 width="260.000000pt" height="260.000000pt" viewBox="0 0 260.000000 260.000000"
 preserveAspectRatio="xMidYMid meet">
<metadata>
Created by potrace 1.14, written by Peter Selinger 2001-2017
</metadata>
<g transform="translate(0.000000,260.000000) scale(0.100000,-0.100000)"
fill="#000000" stroke="none">
<path d="M1245 2395 c-28 -28 -31 -43 -11 -70 12 -17 11 -22 -15 -46 -75 -70
-1 -165 96 -124 26 10 42 12 49 5 5 -5 27 -10 48 -10 l39 0 -22 30 c-21 28
-21 31 -6 48 16 18 16 20 -3 37 -19 17 -21 17 -39 1 -16 -15 -19 -15 -31 -1
-11 13 -9 19 9 38 29 32 27 71 -5 96 -36 28 -79 27 -109 -4z m85 -39 c0 -13
-20 -36 -31 -36 -13 0 -19 33 -8 46 12 15 39 8 39 -10z m-16 -147 c-9 -15 -54
-10 -60 6 -4 8 -1 22 6 30 12 14 16 13 36 -6 13 -12 21 -26 18 -30z"/>
<path d="M888 2344 c-16 -8 -28 -17 -28 -20 0 -2 16 -36 35 -74 19 -39 33 -70
31 -70 -2 0 -41 20 -86 46 -66 36 -88 44 -112 39 -16 -4 -32 -13 -34 -20 -3
-7 18 -63 47 -125 50 -106 54 -111 78 -105 14 4 30 10 34 14 5 5 -8 41 -28 81
-20 40 -33 70 -28 68 4 -2 46 -23 92 -46 76 -39 86 -42 112 -32 16 7 29 16 29
20 0 8 -109 240 -112 240 -2 -1 -15 -8 -30 -16z"/>
<path d="M1720 2313 c-50 -18 -90 -83 -90 -146 0 -74 58 -127 141 -127 35 0
48 6 80 39 22 21 39 45 39 52 0 8 -27 26 -60 41 l-60 26 -11 -21 c-9 -16 -8
-23 6 -33 10 -7 22 -15 28 -17 21 -7 -5 -27 -34 -27 -31 0 -69 30 -69 56 0 29
30 81 55 94 31 16 74 0 82 -30 4 -15 14 -20 39 -20 42 0 44 17 7 61 -40 47
-105 70 -153 52z"/>
<path d="M1926 2083 l-85 -98 24 -22 25 -22 36 37 c24 24 34 30 29 17 -3 -10
-9 -38 -12 -61 -5 -35 -2 -44 18 -58 28 -19 33 -12 43 54 6 45 7 46 40 42 27
-3 37 2 59 28 31 36 33 50 12 89 -12 25 -84 91 -98 91 -3 0 -43 -44 -91 -97z
m134 -24 c0 -10 -29 -39 -39 -39 -5 0 -14 7 -21 15 -11 13 -9 20 11 41 22 23
24 24 36 8 7 -10 13 -21 13 -25z"/>
<path d="M493 2088 l-31 -33 62 -128 61 -129 23 24 c17 19 21 32 16 54 -5 26
-1 34 29 57 27 20 43 25 64 21 21 -4 33 0 47 15 11 12 17 23 15 24 -12 10
-240 127 -247 127 -4 0 -22 -15 -39 -32z m137 -97 c0 -10 -39 -46 -44 -40 -6
6 -46 88 -46 93 0 2 20 -7 45 -21 25 -13 45 -28 45 -32z"/>
<path d="M1145 2043 c-296 -63 -532 -285 -617 -580 -20 -66 -23 -101 -23 -228
1 -138 3 -157 28 -230 79 -227 229 -397 437 -494 220 -102 478 -101 692 4 218
106 380 307 439 545 29 113 23 318 -11 425 -112 351 -424 578 -788 574 -48 0
-118 -7 -157 -16z m390 -73 c163 -51 311 -156 391 -277 135 -203 111 -416 -59
-528 -152 -99 -333 -80 -454 48 -27 28 -89 117 -138 197 -168 272 -281 352
-447 317 -45 -9 -72 11 -59 46 20 56 223 171 366 207 109 27 297 23 400 -10z
m-653 -291 c30 -16 40 -55 23 -89 -18 -35 -34 -44 -104 -59 -91 -19 -137 -45
-159 -88 -24 -47 -57 -77 -72 -68 -31 19 47 206 110 266 22 21 55 43 73 48 35
11 99 6 129 -10z"/>
<path d="M2110 1910 c-52 -37 -96 -72 -98 -78 -3 -9 59 -107 78 -122 3 -3 16
3 29 12 l24 17 -26 34 c-19 26 -23 37 -14 46 17 17 30 13 53 -19 19 -28 21
-29 42 -14 l23 16 -22 35 c-18 29 -19 37 -8 44 21 13 26 11 49 -21 24 -34 28
-35 53 -15 18 13 17 17 -22 74 -23 34 -47 61 -54 60 -7 0 -55 -31 -107 -69z"/>
<path d="M310 1859 c-23 -39 -38 -74 -34 -78 26 -23 217 -131 223 -126 8 4 81
122 81 130 0 1 -11 10 -25 19 -24 16 -25 15 -47 -24 -25 -44 -30 -47 -47 -26
-9 11 -7 22 10 50 l21 36 -26 11 c-14 7 -27 10 -29 8 -2 -2 -12 -19 -23 -37
-18 -29 -22 -31 -39 -18 -18 13 -18 14 3 50 12 21 22 39 22 40 0 2 -11 11 -24
19 -24 16 -24 16 -66 -54z"/>
<path d="M2228 1719 l-116 -50 25 -62 c31 -78 36 -83 68 -69 25 12 25 13 10
43 -9 17 -14 37 -11 45 9 25 32 15 49 -21 15 -33 19 -35 40 -24 12 6 23 13 25
14 1 1 -5 18 -13 38 -14 34 -14 37 6 47 18 10 22 7 36 -30 14 -34 20 -39 37
-34 12 3 24 9 28 13 8 7 -45 134 -58 137 -5 1 -61 -20 -126 -47z"/>
<path d="M411 1601 c-6 -23 -15 -41 -20 -41 -4 0 -47 14 -96 30 -49 17 -90 30
-91 30 -7 0 -23 -65 -17 -71 9 -8 223 -79 239 -79 11 0 61 146 53 154 -2 2
-16 7 -30 11 -23 6 -27 2 -38 -34z"/>
<path d="M2335 1509 c-161 -22 -145 -16 -145 -56 0 -31 2 -35 23 -30 12 3 49
8 82 12 l60 6 -73 -68 c-69 -64 -73 -70 -66 -101 6 -29 10 -32 33 -28 14 3 71
10 126 17 55 6 104 15 108 19 4 4 5 19 1 34 -7 30 -3 30 -138 10 l-38 -6 73
64 c64 55 74 69 77 101 3 36 2 37 -30 36 -18 -1 -60 -5 -93 -10z"/>
<path d="M152 1435 c-43 -95 26 -195 135 -195 82 0 136 58 131 142 l-3 53 -37
3 -37 3 12 -30 c28 -76 -69 -134 -127 -75 -21 20 -20 73 1 96 15 17 15 18 -3
18 -10 0 -28 3 -40 6 -15 4 -23 -1 -32 -21z"/>
<path d="M375 1057 c6 -24 3 -26 -49 -38 -31 -7 -54 -14 -52 -17 3 -2 28 1 57
7 58 13 73 5 66 -36 -5 -26 11 -31 20 -7 8 21 -19 106 -35 112 -9 3 -11 -3 -7
-21z"/>
<path d="M2307 1037 c-5 -13 -13 -16 -33 -11 -19 5 -25 4 -20 -5 4 -6 18 -11
32 -11 13 0 24 -5 24 -11 0 -14 42 -7 48 9 2 7 -5 12 -16 12 -12 0 -22 8 -24
18 -3 16 -4 16 -11 -1z"/>
<path d="M270 970 c0 -6 7 -13 15 -16 12 -5 13 -9 4 -21 -11 -12 -8 -13 17 -7
43 10 52 23 30 40 -23 16 -66 19 -66 4z m55 -18 c-3 -3 -11 0 -18 7 -9 10 -8
11 6 5 10 -3 15 -9 12 -12z"/>
<path d="M2312 973 c-28 -4 -31 -7 -21 -19 10 -12 9 -13 -6 -8 -13 5 -16 4
-11 -4 4 -7 16 -12 26 -12 13 0 17 -5 14 -15 -5 -11 -11 -12 -24 -5 -10 6 -21
10 -24 10 -13 0 -5 -25 16 -47 l21 -23 -32 0 c-25 0 -32 -4 -28 -14 4 -10 -2
-16 -16 -19 -19 -3 -17 -6 15 -20 21 -9 45 -17 55 -16 10 0 2 7 -17 14 -30 12
-32 14 -11 14 24 1 24 1 5 16 -18 14 -18 14 10 15 21 0 27 4 23 15 -4 8 -2 17
2 20 14 8 20 59 9 73 -8 9 -5 12 11 12 11 0 21 5 21 10 0 6 -1 9 -2 8 -2 0
-18 -3 -36 -5z m-5 -89 c-3 -3 -12 -4 -19 -1 -8 3 -5 6 6 6 11 1 17 -2 13 -5z"/>
<path d="M345 923 c-32 -8 -43 -22 -41 -52 2 -39 30 -65 55 -51 11 5 23 10 28
10 4 -1 -5 -8 -22 -17 -24 -13 -27 -17 -13 -22 12 -4 15 -10 8 -21 -5 -9 -5
-19 1 -26 10 -12 -5 -29 -25 -29 -5 0 -11 -6 -13 -12 -7 -20 19 -15 44 9 13
12 23 16 23 9 0 -20 44 -8 48 13 4 17 0 18 -32 13 -40 -6 -51 13 -18 32 14 9
14 12 3 20 -11 7 -11 9 0 13 22 7 -2 30 -26 24 -13 -3 -27 0 -34 8 -16 19 -2
27 38 21 l36 -5 -30 15 c-16 8 -36 14 -44 15 -26 0 0 15 47 26 37 9 41 12 17
12 -16 0 -39 -3 -50 -5z"/>
<path d="M445 870 c-3 -5 -1 -10 4 -10 6 0 11 5 11 10 0 6 -2 10 -4 10 -3 0
-8 -4 -11 -10z"/>
<path d="M2203 756 c-9 -11 -6 -16 13 -25 33 -15 37 -14 30 4 -3 9 0 15 9 15
7 0 16 4 19 8 9 14 -58 12 -71 -2z"/>
<path d="M2158 698 c-7 -13 -11 -28 -10 -34 1 -6 -9 -16 -23 -22 -22 -10 -24
-15 -15 -32 6 -11 8 -25 5 -30 -3 -6 1 -10 9 -10 19 0 21 21 4 39 -11 11 -9
11 9 2 33 -17 41 -13 14 9 -24 20 -18 27 9 11 22 -15 32 -2 15 22 -22 31 -19
38 10 25 30 -13 52 1 42 26 -10 24 -54 20 -69 -6z m52 2 c0 -5 -7 -10 -15 -10
-8 0 -15 5 -15 10 0 6 7 10 15 10 8 0 15 -4 15 -10z"/>
<path d="M2055 680 c3 -5 8 -10 11 -10 2 0 4 5 4 10 0 6 -5 10 -11 10 -5 0 -7
-4 -4 -10z"/>
<path d="M470 668 c-37 -20 -37 -51 0 -82 17 -14 36 -26 40 -26 5 0 7 -7 4
-15 -4 -9 0 -15 10 -15 9 0 16 -8 16 -20 0 -17 2 -17 25 6 29 29 25 44 -10 44
-13 0 -40 16 -62 36 -36 34 -37 36 -18 50 22 16 59 18 85 4 18 -10 40 4 26 17
-12 12 -93 13 -116 1z"/>
<path d="M1944 548 c-16 -34 -16 -36 10 -76 31 -49 47 -52 75 -16 22 28 27 54
11 54 -5 0 -10 -6 -10 -13 0 -17 -32 -47 -50 -47 -10 0 -10 3 0 15 7 8 9 15 5
15 -3 0 3 16 15 35 12 19 18 35 13 35 -5 0 -18 -16 -30 -36 l-21 -37 -7 32
c-4 20 -2 37 6 47 6 8 9 17 6 20 -3 4 -14 -9 -23 -28z"/>
<path d="M2065 550 c6 -10 4 -12 -10 -6 -18 7 -18 6 0 -14 22 -24 35 -26 35
-4 0 11 6 14 20 9 11 -4 20 -2 20 4 0 6 -6 11 -12 11 -7 0 -24 3 -37 7 -18 5
-22 3 -16 -7z"/>
<path d="M572 508 c-12 -12 -17 -38 -7 -38 11 0 65 31 65 36 0 4 -9 4 -20 1
-10 -3 -20 -1 -22 4 -2 6 -9 4 -16 -3z"/>
<path d="M610 465 c-16 -20 3 -45 34 -44 21 0 21 0 -1 9 -13 5 -23 15 -22 22
0 10 2 10 6 1 5 -15 43 1 43 17 0 16 -46 12 -60 -5z"/>
<path d="M800 415 c-29 -31 -56 -32 -64 -2 l-6 22 -21 -24 c-11 -13 -18 -29
-16 -35 5 -14 47 -20 47 -7 0 6 7 11 15 11 19 0 19 -2 -6 -45 -12 -20 -19 -38
-16 -41 3 -3 15 15 28 40 20 40 25 45 48 40 23 -5 24 -4 8 6 -15 10 -16 14 -5
27 7 8 21 19 33 23 20 9 20 9 -1 9 -11 1 -31 -10 -44 -24z m-70 -19 c0 -8 -4
-18 -10 -21 -5 -3 -10 3 -10 14 0 12 5 21 10 21 6 0 10 -6 10 -14z"/>
<path d="M1750 425 c0 -14 35 -92 48 -107 17 -21 32 -15 32 13 0 20 0 20 26 0
27 -22 44 -27 44 -13 0 10 -63 52 -78 52 -7 0 -12 -10 -12 -22 -1 -20 -4 -18
-20 12 -11 19 -19 43 -20 53 0 14 -20 27 -20 12z"/>
<path d="M1872 378 c4 -40 24 -43 46 -8 16 25 16 25 -4 8 -11 -10 -25 -18 -30
-18 -5 0 -3 4 5 9 15 10 8 41 -9 41 -7 0 -10 -14 -8 -32z"/>
<path d="M881 379 c0 -15 6 -32 14 -39 13 -11 12 -18 -10 -58 -28 -51 -29 -52
-15 -52 6 0 15 12 21 27 6 16 21 41 33 58 13 16 26 41 30 55 l7 25 -24 -28
c-25 -30 -39 -25 -50 18 -4 16 -5 15 -6 -6z"/>
<path d="M1710 353 c0 -7 5 -15 10 -18 6 -4 10 -16 8 -27 -2 -11 5 -25 14 -31
23 -15 32 -4 19 21 -6 11 -8 22 -3 25 4 2 1 2 -5 1 -7 -2 -19 7 -28 19 -8 12
-15 16 -15 10z"/>
<path d="M1559 319 c-6 -12 -8 -30 -5 -42 3 -11 0 -29 -5 -39 -6 -11 -8 -27
-5 -35 6 -14 10 -13 29 6 13 11 29 21 35 21 7 0 12 8 12 18 0 10 5 23 12 30 6
6 9 15 5 18 -3 3 -17 -7 -31 -22 l-26 -29 7 48 c6 51 -7 64 -28 26z"/>
<path d="M1190 291 c0 -20 -6 -30 -20 -34 -11 -3 -20 -11 -20 -17 0 -10 3 -10
15 0 16 13 20 8 28 -40 3 -17 5 -14 6 13 0 22 6 37 14 37 8 0 8 3 -2 9 -8 5
-12 19 -9 35 3 14 1 26 -3 26 -5 0 -9 -13 -9 -29z"/>
<path d="M1240 284 c-13 -33 -13 -85 0 -104 8 -11 10 -8 8 15 0 17 2 49 6 73
9 47 1 56 -14 16z"/>
<path d="M935 280 c-8 -25 11 -51 31 -43 20 8 14 57 -8 61 -10 2 -19 -5 -23
-18z m35 -16 c0 -8 -4 -14 -10 -14 -5 0 -10 9 -10 21 0 11 5 17 10 14 6 -3 10
-13 10 -21z"/>
<path d="M994 256 c-3 -14 -3 -30 1 -35 11 -19 32 -12 39 12 10 37 7 40 -14
16 -21 -26 -26 -19 -10 12 7 13 7 19 1 19 -6 0 -13 -11 -17 -24z"/>
<path d="M1074 255 c-5 -12 -9 -13 -14 -5 -5 9 -10 6 -15 -10 -12 -36 9 -43
33 -11 13 18 18 32 12 36 -6 3 -13 -1 -16 -10z"/>
<path d="M1340 219 c0 -19 4 -40 9 -48 6 -10 9 -1 7 27 -2 51 -16 69 -16 21z"/>
<path d="M1432 238 c-5 -7 -12 -22 -14 -33 -4 -18 -6 -17 -16 8 -6 15 -16 27
-21 27 -15 0 -24 -41 -12 -53 8 -8 11 -4 11 13 1 24 1 24 17 -5 9 -17 18 -25
21 -17 2 6 8 10 13 6 12 -7 49 5 49 17 0 6 -7 6 -19 -1 -14 -7 -22 -7 -26 0
-4 6 -1 9 7 8 7 -2 14 7 16 20 4 24 -10 29 -26 10z"/>
<path d="M1277 233 c-12 -11 -7 -40 9 -53 12 -11 18 -10 31 3 15 15 15 18 -2
37 -19 21 -28 24 -38 13z m31 -31 c6 -18 -15 -14 -22 4 -4 10 -1 14 6 12 6 -2
14 -10 16 -16z"/>
</g>
</svg>
