<?xml version="1.0" encoding="utf-8"?>
<!-- Generator: Adobe Illustrator 25.3.1, SVG Export Plug-In . SVG Version: 6.00 Build 0)  -->
<svg version="1.1" id="Layer_1" xmlns="http://www.w3.org/2000/svg" xmlns:xlink="http://www.w3.org/1999/xlink" x="0px" y="0px"
	 viewBox="0 0 28.9 46.5" style="enable-background:new 0 0 28.9 46.5;" xml:space="preserve">
<style type="text/css">
	.st0{fill:#03A5DE;}
</style>
<g id="Layer_2_1_">
	<g id="Layer_1-2">
		<path class="st0" d="M26.8,35.7c0,0.3-0.2,0.5-0.4,0.5c0,0,0,0-0.1,0H2.6c-0.3,0-0.5-0.2-0.5-0.4c0,0,0,0,0-0.1V8.8
			c0-0.3,0.2-0.5,0.4-0.5c0,0,0,0,0.1,0h23.7c0.3,0,0.5,0.2,0.5,0.4c0,0,0,0,0,0.1v0.4l0.6,0.1c0.5,0.1,1,0.3,1.5,0.4V6.2
			c0-3.4-2.8-6.2-6.2-6.2H6.2C2.8,0,0,2.8,0,6.2v34.1c0,3.4,2.8,6.2,6.2,6.2h16.5c3.4,0,6.2-2.8,6.2-6.2V8.6h-2.1V35.7z M11.9,4.1
			H17c0.3,0,0.5,0.2,0.5,0.4c0,0,0,0,0,0.1c0,0.3-0.2,0.6-0.5,0.6h-5.2c-0.3,0-0.5-0.2-0.5-0.4c0,0,0,0,0-0.1
			C11.3,4.4,11.6,4.1,11.9,4.1z M16.9,41.4c-0.2,0.9-1,1.7-1.9,1.9c-1.4,0.3-2.8-0.5-3.1-1.9c0,0,0,0,0,0c-0.1-0.4-0.1-0.8,0-1.2
			c0.2-0.9,1-1.7,1.9-1.9c1.4-0.3,2.8,0.5,3.1,1.9c0,0,0,0,0,0C17,40.6,17,41,16.9,41.4z"/>
	</g>
</g>
</svg>
