<svg xmlns="http://www.w3.org/2000/svg" viewBox="0 0 90 65"><defs><style>.cls-1{fill:#03a5de;}</style></defs><g id="Layer_2" data-name="Layer 2"><g id="Layer_1-2" data-name="Layer 1"><path class="cls-1" d="M89.9,8.6,64.5,32.5l25.4,24A7.57,7.57,0,0,0,90,55V10A6.15,6.15,0,0,0,89.9,8.6Z"/><path class="cls-1" d="M50.6,38.8,87.7,3.7A9.72,9.72,0,0,0,80,0H10A9.72,9.72,0,0,0,2.3,3.7L39.5,38.8A8.17,8.17,0,0,0,50.6,38.8Z"/><path class="cls-1" d="M.1,8.5A7.57,7.57,0,0,0,0,10V55a7.57,7.57,0,0,0,.1,1.5l25.4-24Z"/><path class="cls-1" d="M54,42.5a13.32,13.32,0,0,1-18,0L29.1,36,2.3,61.3A9.72,9.72,0,0,0,10,65H80a9.72,9.72,0,0,0,7.7-3.7L60.9,35.9Z"/></g></g></svg>