<svg xmlns="http://www.w3.org/2000/svg" viewBox="0 0 45.35 31.18"><defs><style>.cls-1{fill:#03a5de;}</style></defs><g id="Layer_2" data-name="Layer 2"><g id="Layer_1-2" data-name="Layer 1"><path class="cls-1" d="M34.23,0H14A11.15,11.15,0,0,0,2.91,11.12v8.2A11,11,0,0,0,4.48,25,9.4,9.4,0,0,1,.42,29.6.76.76,0,0,0,.64,31a10.81,10.81,0,0,0,8.2-1.88A11.08,11.08,0,0,0,14,30.44h20.2A11.15,11.15,0,0,0,45.35,19.32v-8.2A11.15,11.15,0,0,0,34.23,0ZM13.5,18.59a3.39,3.39,0,0,1-1.64-.42,3.47,3.47,0,0,1-1.78-2.62v-.82a3.43,3.43,0,0,1,3.42-3,3.45,3.45,0,0,1,0,6.89Zm10.59.22a3.45,3.45,0,1,1,3.44-3.44A3.44,3.44,0,0,1,24.09,18.81ZM34.68,19A3.11,3.11,0,0,1,34,19a2.88,2.88,0,0,1-.65-.2,3.44,3.44,0,0,1,0-6.34,2.88,2.88,0,0,1,.65-.2,3.11,3.11,0,0,1,.69-.07,3.44,3.44,0,1,1,0,6.88Z"/></g></g></svg>